<svg id="profissionais_black_84dp" xmlns="http://www.w3.org/2000/svg" width="96" height="96" viewBox="0 0 96 96">
  <path id="Caminho_12079" data-name="Caminho 12079" d="M0,0H96V96H0ZM0,0H96V96H0Z" fill="none"/>
  <g id="Grupo_12464" data-name="Grupo 12464" transform="translate(21.037 15.815)">
    <path id="Caminho_10565" data-name="Caminho 10565" d="M44.16.094c6.558,5.421,5.334,26.146-7,40.837,3.41,10.931,3.76,16.877.175,23.26-5.072-7.258-9.357-12.33-9.269-15.128a12.485,12.485,0,0,1-1.924,1.311A12.88,12.88,0,0,1,21.6,49.239a13.307,13.307,0,0,1-3.76-2.624,21.976,21.976,0,0,1-.35-2.361c-2.011,1.836-8.57,1.924-17.489,2.8,2.536-6.821,7.345-10.493,17.839-15.04C20.9,13.036,35.765-1.3,44.16.094Z" transform="translate(0 0)" fill="none" stroke="#46bd9f" stroke-linejoin="round" stroke-width="2.6" fill-rule="evenodd"/>
    <path id="Caminho_10566" data-name="Caminho 10566" d="M0,3.41A13.944,13.944,0,0,0,5.946,8.394a13.412,13.412,0,0,0,7.7,1.224C13.292,5.334,11.98,1.836,9.794.087,7-.35,3.585.874,0,3.41Z" transform="translate(34.366 0.008)" fill="none" stroke="#46bd9f" stroke-linejoin="round" stroke-width="2.6" fill-rule="evenodd"/>
    <path id="Caminho_10567" data-name="Caminho 10567" d="M6.993,6.3,9.258,7.386,0,12.508l4.924-5.22L3.25,6.6,9.553,0l5.22,2.363Z" transform="translate(7.721 51.862)" fill="none" stroke="#46bd9f" stroke-linejoin="round" stroke-width="2.6" fill-rule="evenodd"/>
    <g id="Elipse_750" data-name="Elipse 750" transform="translate(27.14 20.79)" fill="none" stroke="#46bd9f" stroke-width="2.6">
      <circle cx="5.42" cy="5.42" r="5.42" stroke="none"/>
      <circle cx="5.42" cy="5.42" r="4.12" fill="none"/>
    </g>
  </g>
</svg>
